<?xml version="1.0" encoding="UTF-8"?>
<svg width="1024px" height="1024px" viewBox="0 0 1024 1024" version="1.1" xmlns="http://www.w3.org/2000/svg" xmlns:xlink="http://www.w3.org/1999/xlink">
    <title>butterscript-logo</title>
    <g id="butterscript-logo" stroke="none" fill="none" fill-rule="nonzero">
        <path d="M534.458546,90.0143913 L992.587067,305.319349 C994.37197,306.110754 996.103476,306.997778 997.775405,307.973654 C1011.41702,315.839153 1019.82406,328.549064 1022.79079,342.320365 C1022.83087,342.512558 1022.87177,342.705161 1022.91162,342.898131 C1022.93103,342.991743 1022.94983,343.085154 1022.96837,343.178611 C1023.59848,346.314821 1023.94896,349.547062 1023.99416,352.846746 C1023.99469,352.924538 1023.99572,353.001863 1023.99659,353.079191 C1023.9987,353.277898 1023.99945,353.477274 1023.99908,353.676887 C1024.00017,354.691402 1023.97177,355.7058 1023.91473,356.718968 L1013.22919,591.685218 C1012.46293,608.539395 1003.69133,624.013105 989.624424,633.325667 L541.147711,930.225877 C532.181768,936.161503 521.857379,939.085086 511.553612,938.998116 L511.234681,939 C498.015827,939 485.931397,934.142355 476.668674,926.114557 L34.2804163,631.865509 C20.2713863,622.547624 11.5402136,607.111212 10.771458,590.302482 L0.0829806182,356.67797 C0.0276198439,355.681099 -1.57285612e-05,354.683057 6.71575064e-09,353.685192 C0.000534342321,353.490246 0.00121024816,353.295537 0.00294680101,353.10106 C0.0041187105,353.013195 0.00528634664,352.925204 0.00666889305,352.837217 C0.0517350503,349.538292 0.402643514,346.306941 1.03268718,343.171485 C1.04925316,343.08985 1.0656809,343.008112 1.0822994,342.926408 C1.12350743,342.727462 1.16553877,342.529177 1.20868505,342.331289 C4.16966649,328.564205 12.5691248,315.856714 26.198339,307.987866 C27.8772813,307.007786 29.614683,306.116979 31.405885,305.322471 L489.541454,90.0143913 C503.767617,83.3285362 520.232383,83.3285362 534.458546,90.0143913 Z M913.923,450.53 L564.041,664.436 L564.041,788.397 L908.943218,560.066431 L913.923,450.53 Z M110.103,450.546 L115.050659,558.734611 L458.427,787.127 L458.427,663.5 L110.103,450.546 Z M512,196.167112 L164.015745,359.708402 L512,572.453527 L859.982725,359.708402 L512,196.167112 Z" id="Combined-Shape" fill="#F5E985"></path>
    </g>
</svg>